<?xml version="1.0" encoding="UTF-8" standalone="no"?>
<!-- Created with Inkscape (http://www.inkscape.org/) -->

<svg
   xmlns:osb="http://www.openswatchbook.org/uri/2009/osb"
   xmlns:dc="http://purl.org/dc/elements/1.1/"
   xmlns:cc="http://creativecommons.org/ns#"
   xmlns:rdf="http://www.w3.org/1999/02/22-rdf-syntax-ns#"
   xmlns:svg="http://www.w3.org/2000/svg"
   xmlns="http://www.w3.org/2000/svg"
   xmlns:sodipodi="http://sodipodi.sourceforge.net/DTD/sodipodi-0.dtd"
   xmlns:inkscape="http://www.inkscape.org/namespaces/inkscape"
   width="210mm"
   height="210mm"
   viewBox="0 0 210 210"
   version="1.1"
   id="svg122"
   sodipodi:docname="Logo-black.svg"
   enable-background="new"
   inkscape:version="0.92.4 (5da689c313, 2019-01-14)">
  <defs
     id="defs116">
    <linearGradient
       id="linearGradient4716"
       osb:paint="solid">
      <stop
         style="stop-color:#000000;stop-opacity:1;"
         offset="0"
         id="stop4714" />
    </linearGradient>
    <linearGradient
       inkscape:collect="always"
       id="linearGradient4706"
       osb:paint="gradient">
      <stop
         style="stop-color:#000000;stop-opacity:1;"
         offset="0"
         id="stop4702" />
      <stop
         style="stop-color:#000000;stop-opacity:0;"
         offset="1"
         id="stop4704" />
    </linearGradient>
    <linearGradient
       id="linearGradient4698"
       osb:paint="solid">
      <stop
         style="stop-color:#000000;stop-opacity:1;"
         offset="0"
         id="stop4696" />
    </linearGradient>
  </defs>
  <sodipodi:namedview
     id="base"
     pagecolor="#ffffff"
     bordercolor="#666666"
     borderopacity="1.0"
     inkscape:pageopacity="0"
     inkscape:pageshadow="2"
     inkscape:zoom="0.98994949"
     inkscape:cx="279.88168"
     inkscape:cy="415.89076"
     inkscape:document-units="mm"
     inkscape:current-layer="g170"
     showgrid="false"
     inkscape:pagecheckerboard="true"
     borderlayer="true"
     inkscape:showpageshadow="true"
     inkscape:window-width="1920"
     inkscape:window-height="1017"
     inkscape:window-x="-8"
     inkscape:window-y="-8"
     inkscape:window-maximized="1" />
  <metadata
     id="metadata119">
    <rdf:RDF>
      <cc:Work
         rdf:about="">
        <dc:format>image/svg+xml</dc:format>
        <dc:type
           rdf:resource="http://purl.org/dc/dcmitype/StillImage" />
        <dc:title></dc:title>
      </cc:Work>
    </rdf:RDF>
  </metadata>
  <g
     inkscape:label="Layer 1"
     id="layer1"
     transform="translate(0,-87)"
     inkscape:groupmode="layer">
    <g
       id="g48"
       transform="matrix(0.01795761,0,0,-0.01795761,-11.207427,262.06578)"
       style="fill:#3f51b5;stroke:none"
       sodipodi:insensitive="true" />
    <g
       id="g170">
      <path
         style="fill:#000000;fill-opacity:1;stroke-width:2.18006086"
         d="m 475.68555,185.38281 -225.71485,1.4336 -225.714841,1.43164 -10.222656,4.76367 c -7.4291587,3.46254 -10.5941901,6.35828 -11.5820311,10.5957 -2.12553191,9.11766 3.0342185,74.4665 6.0898437,77.12891 1.4496216,1.26308 12.4452134,6.59698 24.4355464,11.85351 11.990342,5.2565 47.797888,21.50339 79.572268,36.10352 31.77439,14.60013 62.18638,28.48588 67.58203,30.85742 13.9829,6.14597 23.34783,14.79897 29.80273,27.53711 5.23231,10.32544 5.531,12.53817 4.43946,32.96289 -0.64354,12.04161 -2.22465,25.36874 -3.51367,29.61719 -3.55967,11.73199 -23.9164,34.80261 -38.39063,43.50781 -17.66701,10.62546 -21.94597,15.22034 -23.55664,25.29297 -0.82987,5.18974 -3.63408,10.84883 -6.89063,13.9082 -5.31536,4.99351 -5.48836,6.03894 -5.39648,32.57617 0.10933,31.57456 2.10541,44.62014 7.62891,49.86329 4.09138,3.88373 13.63315,4.26657 76.69726,3.08203 24.40223,-0.45835 24.47907,-0.47702 27.625,-6.56055 4.16827,-8.06056 20.81666,-16.8599 38.37695,-20.2832 8.36295,-1.6303 32.03938,-2.81541 57.77149,-2.89063 58.43454,-0.17136 72.18951,2.92837 91.3457,20.58594 l 9.09375,8.38281 19.54297,-1.0625 c 32.649,-1.77411 40.662,-1.82292 58.09961,-0.35351 19.36694,1.63207 19.81805,1.33695 23.32031,-15.28125 3.63031,-17.22565 3.02052,-24.98612 -3.24023,-41.26953 -9.4532,-24.58655 -10.99507,-26.86352 -37.53125,-55.41993 -32.45265,-34.92325 -38.06472,-44.72818 -37.81641,-66.05859 0.35218,-30.2507 8.54793,-50.95284 24.29688,-61.375 7.01476,-4.64217 12.40826,-5.91918 32.03515,-7.58984 55.18568,-4.69728 127.5352,-24.26163 171.2793,-46.31446 64.9965,-32.76695 99.52757,-63.97661 99.70899,-90.11718 0.0693,-9.99179 -1.80849,-13.49885 -9.48047,-17.69922 -6.20266,-3.39621 -17.52188,-3.73438 -124.86133,-3.73438 -107.39021,0 -118.40266,-0.32884 -122.08203,-3.6543 -2.22437,-2.01044 -13.54184,-5.55389 -25.15039,-7.87304 -11.6086,-2.3192 -24.81828,-6.4062 -29.35352,-9.08203 z m -66.33985,36.50781 h 0.004 c -1.08329,5.67784 -1.92159,11.40177 -2.80664,17.11524 -0.92141,5.66079 -1.78204,11.33385 -2.67578,17 -0.85671,5.35279 -1.69588,10.70714 -2.50391,16.06836 -0.63148,4.06053 -1.20862,8.12912 -1.88867,12.18164 -0.77756,4.78688 -1.55815,9.57293 -2.29883,14.36719 -0.66331,4.39619 -1.35391,8.78755 -2.05078,13.17773 -0.82076,4.78587 -1.51326,9.59528 -2.2793,14.39063 -0.31937,4.7777 -0.69191,9.55604 -0.88281,14.34179 -0.26835,6.73387 -1.04742,13.4402 -1.84766,20.12305 -0.79366,6.08213 -1.8011,12.13259 -2.69726,18.19922 -0.45834,2.82967 -0.89374,5.66332 -1.33594,8.49609 1.13839,-0.56769 2.27419,-1.14034 3.41406,-1.70508 15.74438,-7.96357 31.31194,-16.27273 47.03711,-24.28125 8.94921,-4.78972 18.4358,-8.41605 27.625,-12.69531 6.32943,-3.08273 12.70422,-6.06594 19.12696,-8.94726 l 60.47265,-12.95313 c -6.34753,3.35426 -13.1323,5.79076 -19.51562,9.08594 -9.4334,4.61072 -19.04108,8.31684 -28.54492,12.75 -16.12899,8.10474 -32.21316,16.27967 -48.23829,24.5918 -20.65364,10.22539 -41.36079,20.3896 -60.92578,32.65039 -3.32049,2.01131 -6.62998,4.04302 -9.93945,6.07422 -0.3734,0.86714 -0.72393,1.74641 -1.06641,2.6289 L 334.875,453.89844 c 0.67958,-2.45371 1.3836,-4.90167 2.29297,-7.2793 1.16309,-2.21076 2.35901,-4.36995 3.84765,-6.37695 0.74955,-1.01087 1.89176,-2.21744 2.5625,-3.29688 0.3807,-0.61478 0.66176,-1.28922 0.99219,-1.93359 0.32148,-1.02896 0.57783,-2.07446 0.8086,-3.12695 -4.55355,3.07992 -9.06424,6.22186 -13.51953,9.44921 -16.90427,12.52937 -33.87422,25.02793 -49.57032,39.10157 -14.81562,13.67055 -28.85578,28.12575 -40.96484,44.35156 -7.20807,10.18322 -14.74744,20.37671 -19.29102,32.13867 7.33346,0.57487 14.6212,-0.18823 21.94532,-0.40234 8.27977,0.17045 16.55911,1.05287 24.83789,0.98437 4.41726,0.0884 8.80623,0.60163 13.2207,0.5 l -54.85156,28.69727 c -4.34237,-0.30047 -8.69132,-0.54183 -13.04297,-0.61133 -8.15634,-0.49187 -16.33696,-0.93702 -24.50196,-0.71875 -7.48344,0.34054 -14.9578,0.61701 -22.45507,0.19336 -5.82179,-0.43521 -11.54591,-1.47536 -17.32227,-2.32617 l 24.05469,-12.14063 -11.39844,3.35938 c 5.26814,-12.36197 13.00124,-23.33575 20.75781,-34.17188 12.19978,-16.68638 26.47229,-31.58576 41.43555,-45.71484 15.49535,-14.32271 32.24512,-27.16488 49.16602,-39.70313 5.60109,-4.14337 11.30247,-8.13953 17.0664,-12.04297 0.16831,-1.2254 0.38552,-2.44685 0.66992,-3.6621 1.0148,-6.28434 2.04831,-12.56372 3.10547,-18.83985 1.26397,-7.74727 2.46512,-15.50419 3.50391,-23.28711 0.76895,-4.86584 1.55166,-9.72913 2.33789,-14.59179 0.74372,-4.76871 1.41803,-9.55032 2.22266,-14.3086 0.75635,-4.81474 1.52672,-9.627 2.28515,-14.4414 0.79886,-5.03815 1.58265,-10.07854 2.40039,-15.11329 0.80849,-5.14854 1.67824,-10.28873 2.33789,-15.46093 l 40.16797,-40.17578 c -0.97177,5.20902 -1.7418,10.45638 -2.57226,15.69335 -0.7672,5.02685 -1.56985,10.04867 -2.35547,15.07227 -0.75909,4.80646 -1.50433,9.61418 -2.26367,14.41992 -0.7041,4.80575 -1.537,9.58755 -2.30078,14.38281 -0.74159,4.83406 -1.48497,9.66872 -2.24415,14.5 -1.42272,7.87212 -2.69816,15.77146 -3.90039,23.6836 -0.90435,6.1751 -1.83174,12.3459 -2.77929,18.51367 -0.78943,4.75998 -1.5295,9.50026 -1.81446,14.32422 -0.1307,2.71684 -0.12386,1.46829 -0.0723,3.74609 l -2.14649,2.28907 c 0.45693,-0.27701 0.91199,-0.55742 1.36914,-0.83399 6.75226,-4.20823 13.61131,-8.22633 20.53907,-12.11719 0.30433,-1.99643 0.61204,-3.99214 0.90625,-5.99023 0.95539,-6.51553 1.91638,-13.0513 2.1875,-19.64648 0.11735,-4.84646 0.30513,-9.66387 0.60937,-14.50586 0.098,-4.93508 1.36683,-9.74065 1.94727,-14.63086 0.69085,-4.41438 1.3848,-8.82842 2.10937,-13.23633 0.76578,-4.75695 1.48852,-9.51994 2.21485,-14.28321 0.60514,-4.09382 1.3111,-8.17026 1.96484,-12.25585 0.88335,-5.37377 1.73569,-10.75449 2.57031,-16.13672 0.89458,-5.67179 1.82321,-11.33714 2.6875,-17.01367 0.8972,-5.60954 1.85015,-11.21276 2.54492,-16.85352 z m 95.89258,0.15821 -21.74609,52.77344 c -6.73693,5.2995 -13.62807,10.38224 -19.78125,16.37695 -8.92037,8.8396 -17.20934,18.32043 -25.51953,27.74805 -9.0395,10.67429 -17.07642,22.1676 -25.02344,33.68945 -2.37741,3.57975 -4.74192,7.19067 -6.97852,10.875 -1.48987,2.68968 -2.86629,5.18741 -4.5,8.11914 -0.7573,1.35738 1.38401,-2.78614 2.15235,-4.13672 0.76101,-1.3389 1.5475,-2.66433 2.34765,-3.98242 8.2732,-14.9357 13.94685,-25.3952 17.66993,-32.29297 l -33.13672,42.83789 c 12.88558,-25.12248 25.83308,-50.40473 41.95507,-73.57422 8.17074,-11.45552 16.29392,-22.97947 25.63086,-33.50976 8.47722,-9.4856 16.85965,-19.10088 26.13672,-27.80664 6.76256,-5.91032 13.7618,-11.53751 20.79297,-17.11719 z m -167.11133,48.23633 c -6.36125,8.94746 -11.77409,18.55477 -17.22851,28.08984 -8.24305,13.7726 -15.86128,27.93554 -22.94727,42.35742 -5.97051,12.73486 -11.87065,25.48944 -16.75781,38.70313 -3.57746,11.62805 -7.68098,23.08387 -11.0957,34.76367 -2.50522,9.62037 -4.9962,19.24746 -7.10743,28.96875 -0.83588,3.83047 -1.55049,7.68531 -2.18554,11.55664 l -39.75977,40.18945 c 0.22609,-4.16999 1.14935,-8.2145 2.00586,-12.28906 2.23404,-9.94632 4.89472,-19.77522 7.36719,-29.66016 1.1759,-4.4282 1.93527,-7.51815 3.33008,-11.875 2.48074,-7.75003 5.567,-15.28496 7.51562,-23.21679 4.71751,-13.53105 10.64622,-26.48826 16.70703,-39.43946 3.39973,-7.27638 7.09786,-14.29105 10.85742,-21.37695 3.78827,-7.13979 7.2749,-14.47066 11.7754,-21.19531 3.28673,-5.91058 6.49035,-11.8905 9.83398,-17.76563 0.79857,-1.40322 1.68973,-2.74839 2.53516,-4.12304 0.71335,-1.04293 1.50493,-2.03504 2.14062,-3.12891 0.42457,-0.73092 0.68464,-1.54979 1.02734,-2.32422 z"
         transform="matrix(0.26458333,0,0,0.26458333,0,87)"
         id="path98"
         inkscape:connector-curvature="0" />
      <g
         id="g180"
         style="opacity:1;fill:#ffffff;fill-opacity:1;stroke:none;image-rendering:auto" />
    </g>
  </g>
</svg>
