<?xml version="1.0" encoding="UTF-8" standalone="no"?>
<svg
   xmlns:dc="http://purl.org/dc/elements/1.1/"
   xmlns:cc="http://creativecommons.org/ns#"
   xmlns:rdf="http://www.w3.org/1999/02/22-rdf-syntax-ns#"
   xmlns:svg="http://www.w3.org/2000/svg"
   xmlns="http://www.w3.org/2000/svg"
   xmlns:sodipodi="http://sodipodi.sourceforge.net/DTD/sodipodi-0.dtd"
   xmlns:inkscape="http://www.inkscape.org/namespaces/inkscape"
   width="32"
   height="32"
   viewBox="0 0 8.4666662 8.4666662"
   version="1.1"
   id="svg32"
   inkscape:export-filename="C:\Users\rrrru\OneDrive\Рабочий стол\favicon-180x180.png"
   inkscape:export-xdpi="21.771427"
   inkscape:export-ydpi="21.771427"
   inkscape:version="1.0.1 (3bc2e813f5, 2020-09-07)"
   sodipodi:docname="My-icon-32x32.svg">
  <defs
     id="defs26">
    <filter
       inkscape:collect="always"
       style="color-interpolation-filters:sRGB"
       id="filter18"
       x="-1.2e-06"
       width="1.0000024"
       y="-1.2e-06"
       height="1.0000024">
      <feGaussianBlur
         inkscape:collect="always"
         stdDeviation="4.2378716e-06"
         id="feGaussianBlur20" />
    </filter>
  </defs>
  <sodipodi:namedview
     id="base"
     pagecolor="#ffffff"
     bordercolor="#666666"
     borderopacity="1.0"
     inkscape:pageopacity="0.0"
     inkscape:pageshadow="2"
     inkscape:zoom="25.160524"
     inkscape:cx="16"
     inkscape:cy="16"
     inkscape:document-units="px"
     inkscape:current-layer="layer3"
     inkscape:document-rotation="0"
     showgrid="false"
     inkscape:window-width="1920"
     inkscape:window-height="1017"
     inkscape:window-x="-8"
     inkscape:window-y="-8"
     inkscape:window-maximized="1"
     units="px" />
  <metadata
     id="metadata29">
    <rdf:RDF>
      <cc:Work
         rdf:about="">
        <dc:format>image/svg+xml</dc:format>
        <dc:type
           rdf:resource="http://purl.org/dc/dcmitype/StillImage" />
        <dc:title></dc:title>
      </cc:Work>
    </rdf:RDF>
  </metadata>
  <g
     inkscape:groupmode="layer"
     id="layer4"
     inkscape:label="Слой 4"
     style="display:inline;filter:url(#filter18)" />
  <g
     inkscape:groupmode="layer"
     id="layer3"
     inkscape:label="Слой 3"
     style="display:inline" />
  <g
     inkscape:label="Слой 1"
     inkscape:groupmode="layer"
     id="layer1"
     style="display:inline">
    <g
       id="g30">
      <circle
         style="display:inline;fill:#ff5555;stroke-width:0.30684;filter:url(#filter18)"
         id="path16"
         cx="4.232614"
         cy="4.2378716"
         r="4.2378716" />
      <circle
         style="display:inline;fill:#ffffff;stroke-width:0.254469"
         id="path13"
         cx="4.3114824"
         cy="3.3282542"
         r="3.3072226" />
      <path
         style="fill:#000080;stroke-width:0.015103"
         d="M 4.947185,8.1832999 C 4.4060993,7.6335 4.0248954,7.1853175 3.7230818,6.7441179 3.6863607,6.6904438 3.652355,6.6408972 3.6475055,6.6340149 3.6426305,6.6271348 3.5746921,6.6052034 3.4964742,6.585289 2.8761021,6.4273149 2.3021087,6.0920844 1.8746018,5.6380624 1.3989692,5.13293 1.1038066,4.5200662 0.99588563,3.8135301 0.95967043,3.576429 0.95959123,3.1151089 0.99571883,2.8771361 1.1072099,2.1429528 1.4276795,1.5036636 1.9421014,0.98924134 2.4565233,0.47481948 3.0958129,0.15435022 3.8299961,0.04285903 4.0679693,0.00672105 4.5292893,0.00679711 4.7663911,0.04302608 5.5003988,0.15514281 6.1368846,0.47275094 6.6473315,0.98161843 7.165208,1.4978919 7.4883344,2.1404281 7.6005791,2.8771486 c 0.036233,0.2378218 0.036203,0.698954 -4.08e-5,0.9363944 -0.168129,1.1006572 -0.8232251,2.0091191 -1.7920111,2.5060485 -0.192616,0.098802 -0.192616,0.098802 -0.192616,0.098802 -0.00213,0.0017 -0.068311,0.3490879 -0.1471251,0.7720097 -0.078815,0.4229232 -0.146093,0.7791456 -0.1495085,0.7916055 -0.00341,0.012463 -0.00237,-0.3086702 0.00232,-0.7136227 -0.00415,-0.7362783 -0.00415,-0.7362783 -0.00415,-0.7362783 l -0.065789,0.020288 c 0,0 -0.017984,0.2985015 -0.020731,0.9677878 l -0.0039,0.9474996 z M 3.4451591,6.3106026 C 3.0021813,5.5669505 2.7023537,4.6737922 2.5922726,3.7699358 2.576477,3.6402385 2.5595984,3.4950428 2.5547654,3.4472793 l -0.00879,-0.086843 h 0.936527 0.9365259 V 3.277369 3.1943016 H 3.475085 2.5311387 L 2.5313891,2.7827415 2.5316396,2.3711808 2.832829,2.2125979 3.1340196,2.054015 2.8439014,2.0464636 2.5537831,2.0389116 2.5497613,1.6273513 2.5457393,1.2157906 H 3.4370709 4.3283992 V 1.6290262 2.0422616 L 4.1325408,2.1455327 c -0.1077222,0.056799 -0.1943765,0.1043327 -0.1925654,0.1056305 0.00182,0.00131 0.1018409,-0.00649 0.2222891,-0.017286 C 4.2827124,2.2230712 4.3897562,2.2138642 4.400139,2.2134142 4.414843,2.2127804 4.419017,2.1024127 4.419017,1.7141941 V 1.2157912 H 4.8324773 5.2459362 L 5.4463856,1.657558 c 0.1102476,0.2429717 0.202365,0.4441199 0.2047055,0.4469958 0.00232,0.00287 0.1179641,-0.012461 0.2569407,-0.03408 0.1389748,-0.021619 0.2540023,-0.037566 0.2556158,-0.035435 0.00159,0.00212 -0.015856,0.2336618 -0.038818,0.5145144 l -0.041747,0.5106413 0.043949,0.096928 c 0.024174,0.053311 0.043949,0.1004771 0.043949,0.1048117 0,0.00433 -0.1054901,0.00789 -0.2344206,0.00789 H 5.7021316 L 5.6849289,3.2320596 C 5.6677907,3.1944316 5.6670095,3.1943018 5.4587118,3.1943018 H 5.2496926 v 0.083067 0.083068 h 0.4698338 0.4698318 l -0.00823,0.033982 c -0.013564,0.056042 -0.4805411,2.5645121 -0.4941364,2.654376 -0.00691,0.045685 -0.020719,0.1189427 -0.030682,0.1627892 -0.00997,0.043845 -0.00924,0.088597 -0.00924,0.088597 0,0 0.2818125,-0.1338199 0.4491221,-0.2451277 C 7.4536072,5.1519995 7.9337397,3.3690547 7.211971,1.9116787 6.8856739,1.2528243 6.3898472,0.75694329 5.7319406,0.4314827 4.8298506,-0.01477208 3.765842,-0.01442719 2.8625679,0.4324115 2.2066576,0.75688332 1.7103407,1.2535738 1.3844137,1.9116777 1.1608749,2.3630418 1.0510204,2.8391625 1.0510204,3.3566378 c 0,0.8633838 0.3354724,1.6694595 0.9509402,2.2849274 0.3640815,0.3640815 0.7870589,0.6291341 1.2532242,0.7853128 0.14591,0.048884 0.2927009,0.088983 0.3004178,0.082064 0.00274,-0.0025 -0.046946,-0.091726 -0.1104551,-0.1983392 z m 1.8743664,0.131781 c 0,0 0.00567,-0.5240273 0.00567,-1.3073287 V 3.8286336 h 0.1812341 0.181237 v 0.2743735 c 0,0.1509054 0.00262,0.271542 0.00591,0.2680808 0.00323,-0.00346 0.030895,-0.1388234 0.061465,-0.300804 0.030566,-0.1619816 0.058957,-0.3064052 0.063092,-0.3209419 0.00697,-0.02451 -0.0134,-0.02643 -0.2804596,-0.02643 H 5.2497024 v 1.3684498 c 0,1.2416419 2.815e-4,1.3738118 2.815e-4,1.3738118 -0.01326,-0.00469 0.064937,-0.016708 0.069544,-0.02279 z m -0.9109553,-2.0738132 0.00877,-0.645659 -0.3503017,0.00126 -0.3503,0.00126 0.1227434,0.027737 c 0.3481244,0.078668 0.4757008,0.2499357 0.5174529,0.6946663 0.0082,0.08722 0.019434,0.2524476 0.024985,0.3671714 0.00554,0.1147242 0.011851,0.2064754 0.01399,0.2038927 0.00213,-0.00258 0.00784,-0.2952432 0.012657,-0.6503554 z"
         id="path51"
         inkscape:export-xdpi="96"
         inkscape:export-ydpi="96"
         sodipodi:nodetypes="csscsscsscsscsssccccccccsscccccccccccccccccccssscscccscscscssscsscccccssscssscsssscccsscccssssscsssccccsssscc" />
    </g>
  </g>
</svg>
